<svg xmlns="http://www.w3.org/2000/svg" viewBox="0 0 640 400" role="img" aria-labelledby="title-fisioterapia">
  <title id="title-fisioterapia">Ilustração de fisioterapia</title>
  <rect width="640" height="400" rx="24" fill="#d1fae5" />
  <rect x="60" y="100" width="520" height="220" rx="20" fill="#ffffff" />
  <circle cx="200" cy="190" r="52" fill="#14b8a6" />
  <rect x="150" y="170" width="100" height="18" rx="9" fill="#0f766e" />
  <path d="M340 134c-34 0-62 28-62 62v42h124v-42c0-34-28-62-62-62z" fill="#10b981" />
  <path d="M358 245c-14 0-26 12-26 26v30h52v-30c0-14-12-26-26-26z" fill="#0f766e" />
  <path d="M468 266c6-12 10-20 10-34 0-26-22-48-48-48H312c-9 0-17 4-24 10" fill="none" stroke="#0f766e" stroke-width="18" stroke-linecap="round" />
  <text x="320" y="60" font-family="Inter, Arial, sans-serif" font-size="36" fill="#0f766e" text-anchor="middle">Fisioterapia</text>
</svg>